<svg width="305" height="52" viewBox="0 0 305 52" fill="none" xmlns="http://www.w3.org/2000/svg">
<path d="M0.375 39.3438L3.72656 35.8984C5.30469 38.4922 7.5 39.7891 10.3125 39.7891C12.1562 39.7891 13.7891 39.0078 15.2109 37.4453C16.6328 35.8828 17.6016 33.8125 18.1172 31.2344L22.5469 8.96875C21.75 8.84375 21.1953 8.78125 20.8828 8.78125C18.3047 8.78125 16.1562 9.70312 14.4375 11.5469C12.7188 13.375 11.8594 15.6562 11.8594 18.3906L7.3125 20.6172C7.64062 16.2578 9.38281 12.8672 12.5391 10.4453C15.6953 8.02344 19.9375 6.8125 25.2656 6.8125H27.1641C30.0547 14.8594 32.1641 23.1328 33.4922 31.6328L48.8672 6.8125L53.8828 6.22656L52.1016 13.75L48.2812 32.8984C47.9531 34.6016 47.7891 35.9609 47.7891 36.9766C47.7891 38.3516 48.625 39.0391 50.2969 39.0391C51.125 39.0391 52.2344 38.9531 53.625 38.7812L53.3203 40.2812L41.7422 42.5781L47.8125 12.0625L31.7812 37.75L29.3672 38.125V37.4453C29.3672 31.3359 27.875 23.75 24.8906 14.6875L22.9688 24.25C20.625 36.0469 15.5156 41.9453 7.64062 41.9453C4.89062 41.9453 2.46875 41.0781 0.375 39.3438ZM79.3828 35.1016L79.0312 36.9062C74.0625 40.3594 69.8281 42.0859 66.3281 42.0859C64.1094 42.0859 62.3047 41.3125 60.9141 39.7656C59.5391 38.2031 58.8516 36.1875 58.8516 33.7188C58.8516 29.3125 60.5391 25.1719 63.9141 21.2969C67.2891 17.4062 70.8906 15.4609 74.7188 15.4609C76.1094 15.4609 77.2344 15.9297 78.0938 16.8672C78.9531 17.8047 79.3828 19.0234 79.3828 20.5234C79.3828 23.5234 77.8516 26.1016 74.7891 28.2578C71.7266 30.4141 68.0703 31.4922 63.8203 31.4922L63.7969 32.5469C63.7969 37.1094 65.4688 39.3906 68.8125 39.3906C71.7031 39.3906 75.2266 37.9609 79.3828 35.1016ZM63.8672 30.0391C67.3672 29.7578 70.1016 28.8594 72.0703 27.3438C74.0391 25.8125 75.0234 23.8359 75.0234 21.4141C75.0234 19.0234 74.1562 17.8281 72.4219 17.8281C70.5469 17.8281 68.7344 19.0781 66.9844 21.5781C65.2344 24.0625 64.1953 26.8828 63.8672 30.0391ZM86.4609 41.7812L88.1953 34.5625L90.4922 22.9844C90.8516 21.1875 91.0312 20.0156 91.0312 19.4688C91.0312 18.5 90.5703 18.0156 89.6484 18.0156C88.1172 18.0156 85.7891 19.7266 82.6641 23.1484L83.0859 20.9922C86.4922 17.3203 89.5625 15.4844 92.2969 15.4844C94.5469 15.4844 95.6719 16.6562 95.6719 19C95.6719 19.7969 95.4922 21.125 95.1328 22.9844L93.9844 28.7734H94.3359C96.2891 24.7734 98.4922 21.5625 100.945 19.1406C103.414 16.7031 105.711 15.4844 107.836 15.4844C110.398 15.4844 111.68 16.9062 111.68 19.75C111.68 20.6719 111.547 21.7969 111.281 23.125L109.008 34.5625C108.648 36.375 108.469 37.5469 108.469 38.0781C108.469 39.0625 108.93 39.5547 109.852 39.5547C111.414 39.5547 113.75 37.8359 116.859 34.3984L116.414 36.5781C113.008 40.25 109.938 42.0859 107.203 42.0859C104.953 42.0859 103.828 40.9062 103.828 38.5469C103.828 37.7656 104.016 36.4375 104.391 34.5625L106.664 23.0781C106.852 22.1875 106.945 21.4375 106.945 20.8281C106.945 19.5625 106.477 18.9297 105.539 18.9297C102.555 18.9297 98.4141 23.6641 93.1172 33.1328L91.4062 41.5L86.4609 41.7812ZM139.078 28.7734H138.68C134.242 37.6484 129.914 42.0859 125.695 42.0859C123.195 42.0859 121.945 40.6094 121.945 37.6562C121.945 36.8125 122.07 35.7578 122.32 34.4922L124.594 22.9844C124.953 21.1875 125.133 20.0156 125.133 19.4688C125.133 18.5 124.672 18.0156 123.75 18.0156C122.219 18.0156 119.891 19.7266 116.766 23.1484L117.188 20.9922C120.594 17.3203 123.664 15.4844 126.398 15.4844C128.664 15.4844 129.797 16.6562 129.797 19C129.797 19.7812 129.609 21.1094 129.234 22.9844L126.938 34.5156C126.734 35.5469 126.633 36.2812 126.633 36.7188C126.633 37.9844 127.094 38.6172 128.016 38.6172C129.188 38.6172 130.961 37.2031 133.336 34.375C135.727 31.5312 137.922 28.2266 139.922 24.4609L141.609 16.0469L146.578 15.7656L144.844 22.9844L142.547 34.5625C142.188 36.3594 142.008 37.5312 142.008 38.0781C142.008 39.0625 142.469 39.5547 143.391 39.5547C144.938 39.5547 147.266 37.8359 150.375 34.3984L149.953 36.5781C146.531 40.25 143.461 42.0859 140.742 42.0859C138.477 42.0859 137.344 40.9062 137.344 38.5469C137.344 37.75 137.531 36.4219 137.906 34.5625L139.078 28.7734Z" fill="#A4755D"/>
<path d="M152.32 28.7734L153.305 25.3047H163.992L163.008 28.7734H152.32ZM171.867 41.5L175.336 38.0312L175.688 38.125C175.875 38.1562 176.328 38.1719 177.047 38.1719C178.781 38.1719 180.062 37.5547 180.891 36.3203C181.734 35.0859 182.516 32.6719 183.234 29.0781L186.961 10.2812H181.031C175.016 10.2812 172.008 12.6562 172.008 17.4062C172.008 17.9688 172.078 18.6641 172.219 19.4922L167.344 21.7656C168 17.1719 169.992 13.5313 173.32 10.8438C176.648 8.15625 180.836 6.8125 185.883 6.8125H195.82C200.305 6.8125 203.273 6.51562 204.727 5.92188C206.18 5.32813 207.164 4.00781 207.68 1.96094L211.195 0.53125C210.102 3.4375 207.992 5.78906 204.867 7.58594C201.742 9.38281 198.195 10.2812 194.227 10.2812H191.883L188.625 26.6172C188.047 29.5547 187.188 31.875 186.047 33.5781C184.922 35.2656 183.148 36.8828 180.727 38.4297L189.773 38.6172L186.516 42.0859L171.867 41.5ZM208.992 42.0859C206.945 42.0859 205.234 41.2891 203.859 39.6953C202.5 38.0859 201.82 36.0859 201.82 33.6953C201.82 29.1953 203.523 25.0391 206.93 21.2266C210.336 17.3984 214.047 15.4844 218.062 15.4844C220.234 15.4844 222.023 16.2656 223.43 17.8281C224.836 19.3906 225.539 21.3828 225.539 23.8047C225.539 28.4766 223.836 32.6953 220.43 36.4609C217.023 40.2109 213.211 42.0859 208.992 42.0859ZM211.664 40.0469C213.977 40.0469 216.008 38.5625 217.758 35.5938C219.523 32.6094 220.406 29.1484 220.406 25.2109C220.406 20.0391 218.828 17.4531 215.672 17.4531C213.438 17.4531 211.422 18.9922 209.625 22.0703C207.844 25.1328 206.953 28.5859 206.953 32.4297C206.953 37.5078 208.523 40.0469 211.664 40.0469ZM229.664 28.7734L230.648 25.3047H241.336L240.352 28.7734H229.664ZM248.438 49.0234L252.422 46.7969C254.297 48.5156 256.703 49.375 259.641 49.375C261.703 49.375 263.281 48.7656 264.375 47.5469C265.484 46.3438 266.383 44.2422 267.07 41.2422C267.117 41.0391 267.188 40.7422 267.281 40.3516C264.5 41.1328 261.594 41.5234 258.562 41.5234C254.547 41.5234 251.375 40.3672 249.047 38.0547C246.734 35.7422 245.578 32.5938 245.578 28.6094C245.578 22.375 247.75 17.0391 252.094 12.6016C256.438 8.14844 261.672 5.92188 267.797 5.92188C271.281 5.92188 274.68 6.36719 277.992 7.25781L276.117 13.4453H274.688C274.75 12.8984 274.781 12.4219 274.781 12.0156C274.781 10.625 274.031 9.50781 272.531 8.66406C271.031 7.80469 269.055 7.375 266.602 7.375C262.414 7.375 258.727 9.48438 255.539 13.7031C252.367 17.9219 250.781 22.8047 250.781 28.3516C250.781 31.7422 251.797 34.4219 253.828 36.3906C255.859 38.3438 258.625 39.3203 262.125 39.3203C264.281 39.3203 266.117 39.0781 267.633 38.5938L269.953 26.8984H265.805C263.055 26.8984 260.555 27.7812 258.305 29.5469L258.609 27.9297C261.422 25.2109 264.234 23.8516 267.047 23.8516H275.438L273.609 31.0938L272.508 36.625C271.492 41.6875 269.695 45.3984 267.117 47.7578C264.555 50.1328 261.031 51.3203 256.547 51.3203C253.172 51.3203 250.469 50.5547 248.438 49.0234ZM288.445 42.0859C286.398 42.0859 284.688 41.2891 283.312 39.6953C281.953 38.0859 281.273 36.0859 281.273 33.6953C281.273 29.1953 282.977 25.0391 286.383 21.2266C289.789 17.3984 293.5 15.4844 297.516 15.4844C299.688 15.4844 301.477 16.2656 302.883 17.8281C304.289 19.3906 304.992 21.3828 304.992 23.8047C304.992 28.4766 303.289 32.6953 299.883 36.4609C296.477 40.2109 292.664 42.0859 288.445 42.0859ZM291.117 40.0469C293.43 40.0469 295.461 38.5625 297.211 35.5938C298.977 32.6094 299.859 29.1484 299.859 25.2109C299.859 20.0391 298.281 17.4531 295.125 17.4531C292.891 17.4531 290.875 18.9922 289.078 22.0703C287.297 25.1328 286.406 28.5859 286.406 32.4297C286.406 37.5078 287.977 40.0469 291.117 40.0469Z" fill="black"/>
</svg>
