<svg width="64" height="59" viewBox="0 0 64 59" fill="none" xmlns="http://www.w3.org/2000/svg">
<g opacity="0.5" filter="url(#filter0_d_76_422)">
<path fill-rule="evenodd" clip-rule="evenodd" d="M52.0711 85.5289C45.0076 82.0876 48.8677 68.4714 42.148 64.4016C36.9444 61.25 30.3185 71.0137 24.6126 68.8985C19.971 67.1778 18.1949 60.5249 18.3687 55.5865C18.558 50.2074 26.5749 46.5786 25.5844 41.2877C24.4507 35.2319 11.3925 33.6919 13.1651 27.7908C14.9548 21.8331 27.2103 27.894 31.0739 23.0137C34.8165 18.286 26.9296 9.41563 31.1345 5.09231C34.7049 1.42147 41.2493 6.12175 46.195 7.46693C50.0367 8.51183 53.1964 13.0635 57.0707 12.1467C64.3263 10.4299 69.0556 -2.52665 75.8945 0.439484C82.1003 3.13107 75.4758 13.8274 76.377 20.5202C76.8704 24.185 78.0012 27.7933 79.9972 30.9086C82.8034 35.2881 88.2151 37.6553 90.3844 42.3814C92.766 47.57 95.5488 54.0689 92.9651 59.1602C90.3737 64.2665 82.6591 63.9378 77.8568 67.0671C73.7556 69.7397 70.6029 73.4762 66.623 76.3256C61.9169 79.6951 57.276 88.0647 52.0711 85.5289Z" fill="#F9FDFE"/>
</g>
<defs>
<filter id="filter0_d_76_422" x="0" y="0" width="94" height="94" filterUnits="userSpaceOnUse" color-interpolation-filters="sRGB">
<feFlood flood-opacity="0" result="BackgroundImageFix"/>
<feColorMatrix in="SourceAlpha" type="matrix" values="0 0 0 0 0 0 0 0 0 0 0 0 0 0 0 0 0 0 127 0" result="hardAlpha"/>
<feOffset dx="-9" dy="4"/>
<feGaussianBlur stdDeviation="2"/>
<feComposite in2="hardAlpha" operator="out"/>
<feColorMatrix type="matrix" values="0 0 0 0 0 0 0 0 0 0 0 0 0 0 0 0 0 0 0.25 0"/>
<feBlend mode="normal" in2="BackgroundImageFix" result="effect1_dropShadow_76_422"/>
<feBlend mode="normal" in="SourceGraphic" in2="effect1_dropShadow_76_422" result="shape"/>
</filter>
</defs>
</svg>
