<svg width="67" height="64" viewBox="0 0 67 64" fill="none" xmlns="http://www.w3.org/2000/svg">
<rect width="56" height="56" transform="translate(11)" fill="#A4755D" fill-opacity="0.19"/>
<path d="M9.33325 17.3333H23.3333V31.3333H9.33325V17.3333ZM32.6666 17.3333H46.6666V31.3333H32.6666V17.3333ZM9.33325 40.6667H23.3333V54.6667H9.33325V40.6667ZM32.6666 47.6667C32.6666 49.5232 33.4041 51.3037 34.7168 52.6164C36.0296 53.9292 37.8101 54.6667 39.6666 54.6667C41.5231 54.6667 43.3036 53.9292 44.6163 52.6164C45.9291 51.3037 46.6666 49.5232 46.6666 47.6667C46.6666 45.8102 45.9291 44.0297 44.6163 42.7169C43.3036 41.4042 41.5231 40.6667 39.6666 40.6667C37.8101 40.6667 36.0296 41.4042 34.7168 42.7169C33.4041 44.0297 32.6666 45.8102 32.6666 47.6667Z" stroke="#A4755D" stroke-width="4" stroke-linecap="round" stroke-linejoin="round"/>
</svg>
