<svg width="56" height="62" viewBox="0 0 56 62" fill="none" xmlns="http://www.w3.org/2000/svg">
<rect x="14" width="40" height="48" rx="8" fill="#A4755D" fill-opacity="0.19"/>
<path d="M44.3333 50.3333H11.6667V17.6667H44.3333M44.3333 13H11.6667C10.429 13 9.242 13.4917 8.36683 14.3668C7.49167 15.242 7 16.429 7 17.6667V50.3333C7 51.571 7.49167 52.758 8.36683 53.6332C9.242 54.5083 10.429 55 11.6667 55H44.3333C45.571 55 46.758 54.5083 47.6332 53.6332C48.5083 52.758 49 51.571 49 50.3333V17.6667C49 16.429 48.5083 15.242 47.6332 14.3668C46.758 13.4917 45.571 13 44.3333 13ZM38.5 43.9167C38.5 40.4167 31.5 38.6667 28 38.6667C24.5 38.6667 17.5 40.4167 17.5 43.9167V45.6667H38.5M28 34.5833C29.3924 34.5833 30.7277 34.0302 31.7123 33.0456C32.6969 32.0611 33.25 30.7257 33.25 29.3333C33.25 27.9409 32.6969 26.6056 31.7123 25.621C30.7277 24.6365 29.3924 24.0833 28 24.0833C26.6076 24.0833 25.2723 24.6365 24.2877 25.621C23.3031 26.6056 22.75 27.9409 22.75 29.3333C22.75 30.7257 23.3031 32.0611 24.2877 33.0456C25.2723 34.0302 26.6076 34.5833 28 34.5833Z" fill="#A4755D"/>
</svg>
