<svg width="50" height="53" viewBox="0 0 50 53" fill="none" xmlns="http://www.w3.org/2000/svg">
<path d="M21.8235 0C18.5161 0 15.3442 1.31386 13.0055 3.65255C10.6668 5.99124 9.35294 9.16318 9.35294 12.4706C9.35294 15.778 10.6668 18.9499 13.0055 21.2886C15.3442 23.6273 18.5161 24.9412 21.8235 24.9412C25.1309 24.9412 28.3029 23.6273 30.6416 21.2886C32.9802 18.9499 34.2941 15.778 34.2941 12.4706C34.2941 9.16318 32.9802 5.99124 30.6416 3.65255C28.3029 1.31386 25.1309 0 21.8235 0ZM12.4706 12.4706C12.4706 9.99003 13.456 7.61108 15.21 5.85706C16.964 4.10304 19.343 3.11765 21.8235 3.11765C24.3041 3.11765 26.683 4.10304 28.437 5.85706C30.1911 7.61108 31.1765 9.99003 31.1765 12.4706C31.1765 14.9511 30.1911 17.3301 28.437 19.0841C26.683 20.8381 24.3041 21.8235 21.8235 21.8235C19.343 21.8235 16.964 20.8381 15.21 19.0841C13.456 17.3301 12.4706 14.9511 12.4706 12.4706ZM6.26335 28.0588C5.44216 28.0551 4.62833 28.2137 3.86859 28.5254C3.10885 28.8371 2.41816 29.2958 1.83618 29.8751C1.25421 30.4545 0.792409 31.1431 0.477303 31.9015C0.162198 32.6598 -8.31434e-06 33.4729 3.1964e-10 34.2941C3.19641e-10 39.5661 2.597 43.5411 6.65617 46.1318C9.92347 48.2144 14.1229 49.3991 18.7059 49.7576V46.6306C14.5968 46.2752 11.0115 45.2059 8.33347 43.4974C5.05994 41.4117 3.11765 38.3782 3.11765 34.2941C3.11765 32.5701 4.51435 31.1765 6.26335 31.1765H42.8115C42.2643 30.2286 41.4772 29.4415 40.5293 28.8942C39.5815 28.347 38.5062 28.0589 37.4118 28.0588H6.26335ZM49.8823 38.9706V48.3235C49.8823 49.5638 49.3896 50.7533 48.5126 51.6303C47.6356 52.5073 46.4461 53 45.2059 53H26.5C25.2597 53 24.0702 52.5073 23.1932 51.6303C22.3162 50.7533 21.8235 49.5638 21.8235 48.3235V38.9706C21.8235 37.7303 22.3162 36.5408 23.1932 35.6638C24.0702 34.7868 25.2597 34.2941 26.5 34.2941H45.2059C46.4461 34.2941 47.6356 34.7868 48.5126 35.6638C49.3896 36.5408 49.8823 37.7303 49.8823 38.9706ZM46.7647 48.3235V45.2059C45.5244 45.2059 44.3349 45.6986 43.4579 46.5756C42.5809 47.4526 42.0882 48.6421 42.0882 49.8824H45.2059C45.2059 49.4689 45.3701 49.0724 45.6624 48.7801C45.9548 48.4878 46.3513 48.3235 46.7647 48.3235ZM46.7647 38.9706C46.3513 38.9706 45.9548 38.8064 45.6624 38.514C45.3701 38.2217 45.2059 37.8252 45.2059 37.4118H42.0882C42.0882 38.652 42.5809 39.8415 43.4579 40.7185C44.3349 41.5955 45.5244 42.0882 46.7647 42.0882V38.9706ZM26.5 37.4118C26.5 37.8252 26.3358 38.2217 26.0434 38.514C25.7511 38.8064 25.3546 38.9706 24.9412 38.9706V42.0882C26.1814 42.0882 27.3709 41.5955 28.2479 40.7185C29.1249 39.8415 29.6176 38.652 29.6176 37.4118H26.5ZM24.9412 48.3235C25.3546 48.3235 25.7511 48.4878 26.0434 48.7801C26.3358 49.0724 26.5 49.4689 26.5 49.8824H29.6176C29.6176 48.6421 29.1249 47.4526 28.2479 46.5756C27.3709 45.6986 26.1814 45.2059 24.9412 45.2059V48.3235ZM35.8529 38.9706C34.6127 38.9706 33.4232 39.4633 32.5462 40.3403C31.6692 41.2173 31.1765 42.4068 31.1765 43.6471C31.1765 44.8873 31.6692 46.0768 32.5462 46.9538C33.4232 47.8308 34.6127 48.3235 35.8529 48.3235C37.0932 48.3235 38.2827 47.8308 39.1597 46.9538C40.0367 46.0768 40.5294 44.8873 40.5294 43.6471C40.5294 42.4068 40.0367 41.2173 39.1597 40.3403C38.2827 39.4633 37.0932 38.9706 35.8529 38.9706Z" fill="#A4755D"/>
</svg>
