<svg width="56" height="56" viewBox="0 0 56 56" fill="none" xmlns="http://www.w3.org/2000/svg">
<path d="M38.5 46.5325L33.9675 42L31.5 44.4675L38.5 51.4675L52.5 37.4675L50.0325 35L38.5 46.5325Z" fill="#A4755D"/>
<path d="M28 31.5C29.933 31.5 31.5 29.933 31.5 28C31.5 26.067 29.933 24.5 28 24.5C26.067 24.5 24.5 26.067 24.5 28C24.5 29.933 26.067 31.5 28 31.5Z" fill="#A4755D"/>
<path d="M28 38.5C25.9233 38.5 23.8932 37.8842 22.1665 36.7304C20.4398 35.5767 19.094 33.9368 18.2993 32.0182C17.5045 30.0996 17.2966 27.9884 17.7018 25.9516C18.1069 23.9148 19.1069 22.0438 20.5754 20.5754C22.0438 19.1069 23.9148 18.1069 25.9516 17.7018C27.9884 17.2966 30.0996 17.5045 32.0182 18.2993C33.9368 19.094 35.5767 20.4398 36.7304 22.1665C37.8842 23.8932 38.5 25.9233 38.5 28C38.4968 30.7838 37.3895 33.4526 35.421 35.421C33.4526 37.3895 30.7838 38.4968 28 38.5ZM28 21C26.6155 21 25.2622 21.4105 24.111 22.1797C22.9599 22.9489 22.0627 24.0421 21.5328 25.3212C21.003 26.6003 20.8644 28.0078 21.1345 29.3656C21.4046 30.7235 22.0713 31.9708 23.0503 32.9497C24.0292 33.9287 25.2765 34.5954 26.6344 34.8655C27.9922 35.1356 29.3997 34.997 30.6788 34.4672C31.9579 33.9373 33.0511 33.0401 33.8203 31.889C34.5895 30.7378 35 29.3845 35 28C34.9977 26.1442 34.2594 24.3651 32.9472 23.0528C31.6349 21.7406 29.8558 21.0023 28 21Z" fill="#A4755D"/>
<path d="M49 28C49 23.8466 47.7684 19.7865 45.4609 16.333C43.1534 12.8796 39.8736 10.188 36.0364 8.59854C32.1991 7.0091 27.9767 6.59323 23.9031 7.40352C19.8295 8.21381 16.0877 10.2139 13.1508 13.1508C10.2139 16.0877 8.21381 19.8295 7.40352 23.9031C6.59323 27.9767 7.0091 32.1991 8.59854 36.0364C10.188 39.8736 12.8796 43.1534 16.333 45.4609C19.7865 47.7684 23.8466 49 28 49V45.5C24.5388 45.5 21.1554 44.4736 18.2775 42.5507C15.3997 40.6278 13.1567 37.8947 11.8321 34.697C10.5076 31.4993 10.161 27.9806 10.8363 24.5859C11.5115 21.1913 13.1782 18.0731 15.6256 15.6256C18.0731 13.1782 21.1913 11.5115 24.5859 10.8363C27.9806 10.161 31.4993 10.5076 34.697 11.8321C37.8947 13.1567 40.6278 15.3997 42.5507 18.2775C44.4736 21.1554 45.5 24.5388 45.5 28H49Z" fill="#A4755D"/>
</svg>
