<svg width="128" height="133" viewBox="0 0 128 133" fill="none" xmlns="http://www.w3.org/2000/svg">
<path d="M76.9994 132.729C87.7884 129.788 97.6933 124.259 105.836 116.633C113.98 109.006 120.11 99.5173 123.684 89.0062C127.259 78.495 128.167 67.2863 126.328 56.3727C124.489 45.4592 119.961 35.1779 113.143 26.4393C106.326 17.7008 97.43 10.7748 87.2437 6.2749C77.0574 1.775 65.8952 -0.159951 54.7457 0.641461C43.5962 1.44287 32.8036 4.9559 23.3239 10.8694C13.8443 16.7828 5.97007 24.9142 0.398882 34.5433L27.107 49.6251C30.1521 44.362 34.456 39.9175 39.6374 36.6853C44.8189 33.4531 50.7179 31.533 56.812 31.0949C62.9062 30.6569 69.0072 31.7145 74.5749 34.1741C80.1425 36.6336 85.0048 40.4193 88.7311 45.1956C92.4575 49.9719 94.9327 55.5915 95.9377 61.5567C96.9427 67.5218 96.4464 73.6483 94.4927 79.3936C92.539 85.1388 89.1883 90.3254 84.7374 94.4939C80.2864 98.6624 74.8726 101.684 68.9755 103.292L76.9994 132.729Z" fill="#A4755D"/>
</svg>
