<svg width="281" height="227" viewBox="0 0 281 227" fill="none" xmlns="http://www.w3.org/2000/svg">
<path d="M135.597 227C198.978 227 250.359 176.184 250.359 113.5C250.359 50.8157 198.978 0 135.597 0C72.2156 0 20.835 50.8157 20.835 113.5C20.835 176.184 72.2156 227 135.597 227Z" fill="url(#paint0_linear_1096_969)"/>
<path fill-rule="evenodd" clip-rule="evenodd" d="M234.613 185.852C235.658 185.483 236.759 184.993 237.608 184.284C238.616 183.442 239.025 182.357 239.301 181.215C239.654 179.748 239.795 178.185 240.224 176.716C240.383 176.17 240.688 175.964 240.819 175.872C241.15 175.641 241.485 175.579 241.8 175.602C242.173 175.629 242.686 175.769 243.023 176.388C243.071 176.476 243.134 176.611 243.176 176.796C243.206 176.932 243.226 177.355 243.259 177.53C243.34 177.96 243.408 178.391 243.471 178.824C243.684 180.264 243.806 181.487 244.476 182.81C245.385 184.607 246.296 185.706 247.532 186.193C248.727 186.664 250.156 186.575 251.981 186.206C252.155 186.164 252.327 186.129 252.497 186.1C253.301 185.96 254.071 186.483 254.229 187.276C254.387 188.068 253.875 188.84 253.078 189.015C252.911 189.051 252.747 189.085 252.585 189.117C250.118 189.721 247.263 191.876 245.603 193.764C245.092 194.346 244.343 195.972 243.579 197.01C243.015 197.776 242.382 198.281 241.85 198.459C241.493 198.579 241.193 198.561 240.945 198.5C240.584 198.412 240.285 198.219 240.055 197.912C239.93 197.743 239.814 197.518 239.759 197.23C239.732 197.092 239.729 196.74 239.73 196.581C239.574 196.051 239.384 195.534 239.245 194.999C238.914 193.724 238.264 192.917 237.492 191.851C236.77 190.853 235.995 190.225 234.858 189.725C234.711 189.689 233.517 189.4 233.096 189.235C232.481 188.991 232.187 188.584 232.081 188.365C231.9 187.993 231.881 187.668 231.917 187.397C231.971 186.997 232.153 186.654 232.475 186.378C232.674 186.206 232.972 186.039 233.371 185.957C233.68 185.894 234.498 185.857 234.613 185.852ZM241.612 183.773C241.667 183.895 241.726 184.018 241.788 184.141C243.12 186.772 244.61 188.241 246.42 188.954L246.481 188.977C245.27 189.866 244.173 190.86 243.335 191.813C242.99 192.206 242.534 193.021 242.04 193.856C241.592 192.415 240.859 191.396 239.937 190.121C239.232 189.148 238.494 188.415 237.587 187.819C238.291 187.461 238.962 187.043 239.547 186.554C240.521 185.74 241.165 184.798 241.612 183.773Z" fill="#E3E3E3"/>
<ellipse cx="5.43521" cy="91.3825" rx="5.43521" ry="5.37545" fill="#E3E3E3"/>
<path d="M52.4334 43.213C52.5978 43.7828 53.1991 44.1107 53.7744 43.9442L52.4334 43.213ZM52.4334 43.213L51.9536 43.3537C50.5768 38.6584 47.8731 34.9972 43.7204 32.3468L43.7202 32.3467M52.4334 43.213L51.953 43.3516C52.1953 44.1912 53.0771 44.6665 53.9134 44.4244L53.9141 44.4243C54.7462 44.1822 55.2378 43.3087 54.9894 42.4688C53.3943 37.0305 50.2407 32.7671 45.4266 29.6931L43.7202 32.3467M43.7202 32.3467C42.9869 31.8782 42.769 30.9022 43.2448 30.1679M43.7202 32.3467L43.2448 30.1679M43.2448 30.1679C43.7152 29.4353 44.6945 29.2254 45.4265 29.6931L43.2448 30.1679Z" fill="black" stroke="black"/>
<path d="M103.254 45.0127L103.253 45.0128C101.993 45.649 100.918 45.6069 100.059 45.1814C99.2404 44.7766 98.642 44.0029 98.2781 43.043L98.278 43.0428C97.9313 42.127 97.7929 41.0006 97.7785 39.9363C97.7656 38.9877 97.8508 38.0552 97.9936 37.3146C97.1708 36.4923 96.2756 35.7419 95.3213 35.0692C87.7518 29.7336 76.5303 31.6406 67.7982 39.7941C66.343 41.1535 65.231 43.2978 64.3864 45.9602C63.5443 48.6143 62.9834 51.7332 62.5981 54.9911L62.5981 54.9911C61.5534 63.8144 61.935 73.5366 62.1154 78.1308C62.1424 78.82 62.1649 79.3938 62.1774 79.8319L62.1775 79.833C62.1888 80.2625 62.1743 80.6107 62.1501 80.87C62.138 80.9993 62.1232 81.1098 62.1071 81.1992C62.0939 81.2722 62.0734 81.3705 62.0377 81.4535C61.7439 82.1451 61.1976 82.3359 60.8576 82.4001L60.8524 82.401C60.3723 82.4863 59.9717 82.3948 59.6489 82.2283L59.6463 82.2269C59.2058 81.9964 58.856 81.5915 58.6989 81.0092L58.6979 81.0055C58.6146 80.6871 58.5994 80.284 58.6082 79.9062L58.6084 79.9011C58.611 79.8247 58.6167 79.7495 58.6221 79.6835C58.6233 79.6686 58.6245 79.6542 58.6256 79.6403C58.6298 79.5897 58.6334 79.5457 58.6361 79.5021C58.6394 79.4476 58.6403 79.4065 58.639 79.3749C58.6376 79.3425 58.6345 79.3328 58.6358 79.3375C58.3454 78.3298 58.0032 77.3428 57.655 76.3385C57.6041 76.1918 57.5532 76.0447 57.5022 75.8971L57.5018 75.896C56.1854 72.0574 54.4809 68.4537 52.5792 64.8404L53.0217 64.6076L52.5792 64.8404C52.0685 63.8698 51.5596 62.8955 51.0499 61.9198C45.4956 51.2859 39.8563 40.4896 30.8324 32.5205L30.8322 32.5203C30.181 31.9448 30.1153 30.9471 30.6992 30.2944C31.2778 29.6427 32.2754 29.5879 32.929 30.1606L32.9304 30.1618C42.3604 38.4874 48.2528 49.754 53.9512 60.6496C54.4283 61.5619 54.9041 62.4716 55.3805 63.3767L55.3805 63.3768C56.5898 65.6752 57.7275 67.9813 58.7439 70.3501C58.6959 64.9736 58.8629 58.3179 59.7644 52.3174C60.2348 49.184 60.9198 46.2169 61.8729 43.6703C62.8241 41.1286 64.0547 38.9723 65.6362 37.4947L65.6363 37.4946C75.4316 28.348 88.3213 26.2723 97.1477 32.4966L97.1479 32.4967C97.9119 33.0359 98.6471 33.6195 99.3438 34.2451C104.08 26.3641 113.716 23.2736 122.247 27.1472C123.044 27.508 123.393 28.4437 123.031 29.2356L123.031 29.2356L123.03 29.2386C122.663 30.0275 121.729 30.3749 120.934 30.0154L120.934 30.0151C113.632 26.6996 105.372 29.5689 101.631 36.6201C102.403 37.5519 103.1 38.5497 103.701 39.6077C103.996 40.127 104.542 41.2697 104.629 42.2943C104.729 43.4154 104.338 44.4645 103.254 45.0127ZM101.237 41.929L101.238 41.9296C101.296 42.083 101.341 42.1895 101.389 42.2676C101.41 42.3012 101.426 42.3225 101.439 42.336C101.361 42.008 101.212 41.6673 101.08 41.4059C101.124 41.5922 101.176 41.7679 101.237 41.929Z" fill="black" stroke="black"/>
<rect x="82.6318" y="58.887" width="197.556" height="70.4335" rx="24" fill="black"/>
<rect x="164.182" y="83.1345" width="66.6179" height="9.23718" rx="4.61859" fill="#D9B18F"/>
<rect x="99.8608" y="96.9903" width="131.274" height="9.23718" rx="4.61859" fill="white"/>
<ellipse cx="254.919" cy="94.681" rx="11.4858" ry="11.5465" fill="#E1DCEB"/>
<rect y="117.774" width="197.556" height="70.4335" rx="24" fill="#BCB8B1"/>
<rect x="49.3887" y="142.022" width="66.6179" height="9.23718" rx="4.61859" fill="black"/>
<rect x="49.3887" y="155.878" width="131.274" height="9.23719" rx="4.61859" fill="white"/>
<ellipse cx="28.7144" cy="153.568" rx="11.4858" ry="11.5465" fill="#D9B18F"/>
<defs>
<linearGradient id="paint0_linear_1096_969" x1="134.712" y1="-36.9584" x2="137.012" y2="361.637" gradientUnits="userSpaceOnUse">
<stop stop-color="#F2F2F2"/>
<stop offset="1" stop-color="#EFEFEF"/>
</linearGradient>
</defs>
</svg>
