<svg width="19" height="31" viewBox="0 0 19 31" fill="none" xmlns="http://www.w3.org/2000/svg">
<path d="M18.91 0.86971C18.91 0.641744 18.8194 0.423116 18.6582 0.26192C18.497 0.100724 18.2784 0.0101647 18.0505 0.0101647H13.7527C11.5886 -0.097638 9.46978 0.655497 7.85921 2.10501C6.24863 3.55453 5.27724 5.58259 5.15727 7.74607V12.3876H0.859545C0.63158 12.3876 0.412951 12.4782 0.251755 12.6394C0.0905592 12.8006 0 13.0192 0 13.2472V17.7168C0 17.9448 0.0905592 18.1634 0.251755 18.3246C0.412951 18.4858 0.63158 18.5763 0.859545 18.5763H5.15727V30.0943C5.15727 30.3222 5.24783 30.5408 5.40903 30.702C5.57022 30.8632 5.78885 30.9538 6.01682 30.9538H11.1741C11.4021 30.9538 11.6207 30.8632 11.7819 30.702C11.9431 30.5408 12.0336 30.3222 12.0336 30.0943V18.5763H16.5377C16.7288 18.5791 16.9154 18.518 17.068 18.4028C17.2205 18.2876 17.3303 18.1249 17.38 17.9403L18.6178 13.4706C18.652 13.3436 18.6566 13.2105 18.6312 13.0814C18.6058 12.9524 18.5512 12.8308 18.4715 12.7262C18.3918 12.6216 18.2891 12.5367 18.1714 12.478C18.0537 12.4193 17.9241 12.3884 17.7926 12.3876H12.0336V7.74607C12.0764 7.32056 12.2762 6.92626 12.5941 6.64017C12.912 6.35408 13.3251 6.19675 13.7527 6.19889H18.0505C18.2784 6.19889 18.497 6.10833 18.6582 5.94714C18.8194 5.78594 18.91 5.56731 18.91 5.33935V0.86971Z" fill="#D1CFCF"/>
</svg>
