<svg width="62" height="68" viewBox="0 0 62 68" fill="none" xmlns="http://www.w3.org/2000/svg">
<rect x="6" y="0.5" width="56" height="56" rx="28" fill="#A4755D" fill-opacity="0.19"/>
<path d="M33.25 15C31.8576 15 30.5223 15.5531 29.5377 16.5377C28.5531 17.5223 28 18.8576 28 20.25V27.25C28.0002 28.3355 28.3368 29.3943 28.9636 30.2806C29.5904 31.1669 30.4765 31.8372 31.5 32.199V36C31.5001 36.3325 31.595 36.6581 31.7735 36.9387C31.952 37.2193 32.2067 37.4432 32.5078 37.5842C32.809 37.7252 33.1441 37.7775 33.4739 37.735C33.8036 37.6924 34.1145 37.5568 34.37 37.344L40.18 32.5H47.25C48.6424 32.5 49.9777 31.9469 50.9623 30.9623C51.9469 29.9777 52.5 28.6424 52.5 27.25V20.25C52.5 18.8576 51.9469 17.5223 50.9623 16.5377C49.9777 15.5531 48.6424 15 47.25 15H33.25ZM31.5 20.25C31.5 19.7859 31.6844 19.3408 32.0126 19.0126C32.3407 18.6844 32.7859 18.5 33.25 18.5H47.25C47.7141 18.5 48.1592 18.6844 48.4874 19.0126C48.8156 19.3408 49 19.7859 49 20.25V27.25C49 27.7141 48.8156 28.1592 48.4874 28.4874C48.1592 28.8156 47.7141 29 47.25 29H39.55C39.1407 29.0002 38.7444 29.1438 38.43 29.406L35 32.262V30.75C35 30.2859 34.8156 29.8408 34.4874 29.5126C34.1593 29.1844 33.7141 29 33.25 29C32.7859 29 32.3407 28.8156 32.0126 28.4874C31.6844 28.1592 31.5 27.7141 31.5 27.25V20.25ZM10.5 32.5C10.5 30.6435 11.2375 28.863 12.5503 27.5503C13.863 26.2375 15.6435 25.5 17.5 25.5C19.3565 25.5 21.137 26.2375 22.4497 27.5503C23.7625 28.863 24.5 30.6435 24.5 32.5C24.5 34.3565 23.7625 36.137 22.4497 37.4497C21.137 38.7625 19.3565 39.5 17.5 39.5C15.6435 39.5 13.863 38.7625 12.5503 37.4497C11.2375 36.137 10.5 34.3565 10.5 32.5ZM17.5 29C16.5717 29 15.6815 29.3687 15.0251 30.0251C14.3687 30.6815 14 31.5717 14 32.5C14 33.4283 14.3687 34.3185 15.0251 34.9749C15.6815 35.6313 16.5717 36 17.5 36C18.4283 36 19.3185 35.6313 19.9749 34.9749C20.6313 34.3185 21 33.4283 21 32.5C21 31.5717 20.6313 30.6815 19.9749 30.0251C19.3185 29.3687 18.4283 29 17.5 29ZM8.75 43H26.25C27.6424 43 28.9777 43.5531 29.9623 44.5377C30.9469 45.5223 31.5 46.8576 31.5 48.25C31.5 52.156 29.8935 55.285 27.258 57.4025C24.6645 59.485 21.1855 60.5 17.5 60.5C13.8145 60.5 10.3355 59.485 7.742 57.4025C5.11 55.285 3.5 52.156 3.5 48.25C3.5 46.8576 4.05312 45.5223 5.03769 44.5377C6.02226 43.5531 7.35761 43 8.75 43ZM26.25 46.5H8.75C8.28587 46.5 7.84075 46.6844 7.51256 47.0126C7.18437 47.3408 7 47.7859 7 48.25C7 51.1095 8.1375 53.2305 9.933 54.6725C11.774 56.1495 14.42 57 17.5 57C20.58 57 23.226 56.1495 25.067 54.6725C26.8625 53.2305 28 51.1095 28 48.25C28 47.7859 27.8156 47.3408 27.4874 47.0126C27.1592 46.6844 26.7141 46.5 26.25 46.5Z" fill="#A4755D"/>
</svg>
