<svg width="67" height="68" viewBox="0 0 67 68" fill="none" xmlns="http://www.w3.org/2000/svg">
<rect x="11" width="56" height="56" rx="8" fill="#A4755D" fill-opacity="0.19"/>
<path d="M12 24H24V36H12V24ZM44 24V36H32V24H44ZM32 46H36V42H32V38H36V42H40V38H44V42H40V46H44V52H40V56H36V52H30V56H26V48H32V46ZM36 46V52H40V46H36ZM12 56V44H24V56H12ZM16 28V32H20V28H16ZM36 28V32H40V28H36ZM16 48V52H20V48H16ZM12 38H16V42H12V38ZM22 38H30V46H26V42H22V38ZM26 28H30V36H26V28ZM8 20V28H4V20C4 18.9391 4.42143 17.9217 5.17157 17.1716C5.92172 16.4214 6.93913 16 8 16H16V20H8ZM48 16C49.0609 16 50.0783 16.4214 50.8284 17.1716C51.5786 17.9217 52 18.9391 52 20V28H48V20H40V16H48ZM8 52V60H16V64H8C6.93913 64 5.92172 63.5786 5.17157 62.8284C4.42143 62.0783 4 61.0609 4 60V52H8ZM48 60V52H52V60C52 61.0609 51.5786 62.0783 50.8284 62.8284C50.0783 63.5786 49.0609 64 48 64H40V60H48Z" fill="#A4755D"/>
</svg>
