<svg width="20" height="16" viewBox="0 0 20 16" fill="none" xmlns="http://www.w3.org/2000/svg">
<path d="M16.73 1.41L15.45 2.41L10 6.46L4.55001 2.37L3.27001 1.37C2.96847 1.12055 2.60036 0.965044 2.2113 0.922754C1.82224 0.880464 1.42932 0.953248 1.08122 1.13209C0.733121 1.31093 0.445139 1.58797 0.252953 1.92888C0.0607663 2.26979 -0.0271789 2.6596 1.2612e-05 3.05V14.64C1.2612e-05 15.0007 0.143298 15.3466 0.398347 15.6017C0.653397 15.8567 0.999318 16 1.36001 16H4.55001V8.28L10 12.37L15.45 8.28V16H18.64C19.0007 16 19.3466 15.8567 19.6017 15.6017C19.8567 15.3466 20 15.0007 20 14.64V3.05C20.0188 2.66297 19.9247 2.27881 19.7293 1.94423C19.5338 1.60965 19.2453 1.33905 18.899 1.16533C18.5526 0.991619 18.1632 0.922263 17.7782 0.965699C17.3931 1.00913 17.029 1.16349 16.73 1.41Z" fill="#F9FDFE"/>
</svg>
