<svg width="26" height="26" viewBox="0 0 26 26" fill="none" xmlns="http://www.w3.org/2000/svg">
<path d="M12.9977 18.3337C14.4122 18.3337 15.7687 17.7718 16.7689 16.7716C17.7691 15.7714 18.331 14.4148 18.331 13.0003C18.331 11.5858 17.7691 10.2293 16.7689 9.22909C15.7687 8.2289 14.4122 7.66699 12.9977 7.66699C11.5832 7.66699 10.2267 8.2289 9.22646 9.22909C8.22627 10.2293 7.66437 11.5858 7.66437 13.0003C7.66437 14.4148 8.22627 15.7714 9.22646 16.7716C10.2267 17.7718 11.5832 18.3337 12.9977 18.3337Z" stroke="#D1CFCF" stroke-width="2" stroke-linecap="round" stroke-linejoin="round"/>
<path d="M0.997833 18.3338V7.66716C0.997833 5.89905 1.70021 4.20335 2.95045 2.95311C4.2007 1.70287 5.89639 1.00049 7.6645 1.00049H18.3312C20.0993 1.00049 21.795 1.70287 23.0452 2.95311C24.2955 4.20335 24.9978 5.89905 24.9978 7.66716V18.3338C24.9978 20.1019 24.2955 21.7976 23.0452 23.0479C21.795 24.2981 20.0993 25.0005 18.3312 25.0005H7.6645C5.89639 25.0005 4.2007 24.2981 2.95045 23.0479C1.70021 21.7976 0.997833 20.1019 0.997833 18.3338Z" stroke="#D1CFCF" stroke-width="2"/>
<path d="M20.3292 5.68016L20.3425 5.66553" stroke="#D1CFCF" stroke-width="2" stroke-linecap="round" stroke-linejoin="round"/>
</svg>
