<svg width="26" height="27" viewBox="0 0 26 27" fill="none" xmlns="http://www.w3.org/2000/svg">
<path d="M3.33248 0.500488C2.58103 0.500488 1.86036 0.798999 1.32901 1.33035C0.797657 1.86171 0.499146 2.58237 0.499146 3.33382C0.499146 4.08527 0.797657 4.80594 1.32901 5.33729C1.86036 5.86864 2.58103 6.16715 3.33248 6.16715C4.08393 6.16715 4.8046 5.86864 5.33595 5.33729C5.8673 4.80594 6.16581 4.08527 6.16581 3.33382C6.16581 2.58237 5.8673 1.86171 5.33595 1.33035C4.8046 0.798999 4.08393 0.500488 3.33248 0.500488ZM0.665812 8.50049C0.621609 8.50049 0.579217 8.51805 0.547961 8.5493C0.516705 8.58056 0.499146 8.62295 0.499146 8.66715V26.0005C0.499146 26.0925 0.573812 26.1672 0.665812 26.1672H5.99915C6.04335 26.1672 6.08574 26.1496 6.117 26.1183C6.14825 26.0871 6.16581 26.0447 6.16581 26.0005V8.66715C6.16581 8.62295 6.14825 8.58056 6.117 8.5493C6.08574 8.51805 6.04335 8.50049 5.99915 8.50049H0.665812ZM9.33248 8.50049C9.28828 8.50049 9.24588 8.51805 9.21463 8.5493C9.18337 8.58056 9.16581 8.62295 9.16581 8.66715V26.0005C9.16581 26.0925 9.24048 26.1672 9.33248 26.1672H14.6658C14.71 26.1672 14.7524 26.1496 14.7837 26.1183C14.8149 26.0871 14.8325 26.0447 14.8325 26.0005V16.6672C14.8325 16.0041 15.0959 15.3682 15.5647 14.8994C16.0336 14.4305 16.6694 14.1672 17.3325 14.1672C17.9955 14.1672 18.6314 14.4305 19.1002 14.8994C19.5691 15.3682 19.8325 16.0041 19.8325 16.6672V26.0005C19.8325 26.0925 19.9071 26.1672 19.9991 26.1672H25.3325C25.3767 26.1672 25.4191 26.1496 25.4503 26.1183C25.4816 26.0871 25.4991 26.0447 25.4991 26.0005V14.5072C25.4991 11.2712 22.6858 8.74049 19.4658 9.03249C18.4695 9.12318 17.4936 9.36974 16.5738 9.76315L14.8325 10.5098V8.66715C14.8325 8.62295 14.8149 8.58056 14.7837 8.5493C14.7524 8.51805 14.71 8.50049 14.6658 8.50049H9.33248Z" fill="#D1CFCF"/>
</svg>
