<svg width="171" height="211" viewBox="0 0 171 211" fill="none" xmlns="http://www.w3.org/2000/svg">
<g clip-path="url(#clip0_566_2327)">
<path d="M169.573 194.608C169.462 194.266 168.615 194.417 168.533 194.111C168.452 193.807 169.265 193.552 169.889 192.695C170.001 192.541 170.709 191.567 170.438 191.157C169.923 190.381 166.339 192.314 165.479 191.229C165.29 190.991 165.213 190.582 164.65 189.821C164.426 189.518 164.283 189.372 164.111 189.377C163.868 189.383 163.781 189.687 163.399 190.237C162.825 191.062 162.618 190.958 162.24 191.634C161.96 192.136 161.926 192.457 161.724 192.476C161.438 192.503 161.32 191.878 160.97 191.853C160.613 191.829 160.256 192.446 160.079 192.929C159.747 193.834 159.952 194.526 159.998 195.215C160.047 195.965 159.931 197.062 159.115 198.469L151.418 210.705C153.071 208.211 157.763 201.409 159.654 198.914C160.2 198.194 160.786 197.471 161.689 197.335C162.558 197.203 163.615 197.633 165.091 197.608C165.264 197.605 165.743 197.59 165.86 197.337C165.957 197.127 165.717 196.945 165.804 196.747C165.921 196.483 166.447 196.596 167.163 196.421C167.669 196.297 168.012 196.092 168.307 195.916C168.396 195.863 169.722 195.062 169.573 194.608Z" fill="#F2F2F2"/>
<path d="M149.414 197.464C149.214 197.421 149.043 197.879 148.87 197.831C148.697 197.783 148.806 197.311 148.564 196.758C148.52 196.659 148.246 196.031 147.966 196.046C147.435 196.074 147.353 198.387 146.571 198.495C146.399 198.518 146.175 198.439 145.639 198.494C145.425 198.517 145.312 198.545 145.265 198.63C145.198 198.751 145.322 198.881 145.482 199.227C145.723 199.746 145.612 199.818 145.835 200.198C146.001 200.48 146.149 200.589 146.1 200.693C146.031 200.841 145.689 200.719 145.577 200.883C145.462 201.051 145.662 201.404 145.848 201.63C146.198 202.053 146.598 202.152 146.95 202.329C147.333 202.521 147.839 202.894 148.296 203.7L152.094 211C151.344 209.471 149.352 205.21 148.67 203.565C148.473 203.09 148.287 202.594 148.48 202.112C148.667 201.649 149.183 201.255 149.596 200.525C149.645 200.44 149.776 200.201 149.685 200.07C149.61 199.963 149.451 200.027 149.379 199.928C149.283 199.794 149.49 199.569 149.61 199.168C149.695 198.885 149.694 198.657 149.692 198.462C149.692 198.403 149.68 197.523 149.414 197.464Z" fill="#F2F2F2"/>
<path d="M153.203 199.246L153.323 198.146L153.396 198.077C153.734 197.757 153.946 197.419 154.026 197.071C154.039 197.015 154.048 196.959 154.058 196.902C154.098 196.676 154.147 196.395 154.365 196.103C154.487 195.94 154.81 195.573 155.142 195.701C155.232 195.735 155.293 195.793 155.335 195.854C155.345 195.844 155.356 195.833 155.368 195.821C155.511 195.682 155.612 195.631 155.709 195.582C155.783 195.544 155.86 195.505 155.99 195.401C156.047 195.356 156.093 195.315 156.131 195.28C156.248 195.176 156.397 195.055 156.602 195.103C156.819 195.162 156.893 195.368 156.942 195.505C157.03 195.749 157.058 195.916 157.075 196.027C157.082 196.068 157.089 196.114 157.095 196.129C157.143 196.248 157.738 196.279 157.962 196.292C158.466 196.319 158.902 196.342 159.007 196.687C159.082 196.933 158.925 197.202 158.528 197.506C158.404 197.601 158.28 197.666 158.172 197.715C158.238 197.778 158.291 197.863 158.294 197.979C158.302 198.254 158.019 198.464 157.455 198.607C157.315 198.642 157.127 198.689 156.88 198.678C156.764 198.672 156.662 198.654 156.575 198.637C156.562 198.687 156.539 198.738 156.496 198.787C156.37 198.93 156.167 198.967 155.892 198.886C155.588 198.801 155.348 198.686 155.137 198.585C154.952 198.497 154.792 198.422 154.658 198.402C154.409 198.367 154.177 198.52 153.899 198.724L153.203 199.246Z" fill="#F2F2F2"/>
<path d="M155.19 192.982L154.093 193.145L154.008 193.092C153.612 192.846 153.23 192.728 152.872 192.739C152.816 192.741 152.759 192.746 152.701 192.751C152.472 192.77 152.187 192.794 151.848 192.657C151.66 192.581 151.221 192.363 151.262 192.009C151.271 191.914 151.312 191.841 151.361 191.785C151.348 191.777 151.335 191.769 151.321 191.761C151.15 191.658 151.075 191.574 151.002 191.493C150.947 191.43 150.89 191.366 150.756 191.267C150.697 191.223 150.646 191.19 150.603 191.161C150.473 191.075 150.317 190.962 150.312 190.752C150.314 190.528 150.495 190.404 150.615 190.322C150.829 190.175 150.984 190.106 151.088 190.061C151.125 190.044 151.168 190.025 151.181 190.016C151.284 189.94 151.163 189.357 151.119 189.138C151.018 188.644 150.93 188.218 151.237 188.029C151.457 187.894 151.757 187.977 152.153 188.284C152.276 188.38 152.371 188.483 152.446 188.574C152.49 188.494 152.559 188.422 152.671 188.389C152.935 188.313 153.211 188.532 153.492 189.04C153.562 189.166 153.655 189.336 153.706 189.577C153.73 189.691 153.739 189.793 153.745 189.881C153.796 189.881 153.852 189.891 153.91 189.92C154.081 190.005 154.167 190.191 154.159 190.478C154.154 190.792 154.104 191.053 154.059 191.283C154.021 191.484 153.989 191.657 154.003 191.791C154.032 192.04 154.24 192.226 154.508 192.442L155.19 192.982Z" fill="#F2F2F2"/>
<path d="M155.338 189.696L155.457 188.597L155.53 188.528C155.869 188.208 156.081 187.87 156.161 187.521C156.173 187.466 156.183 187.41 156.193 187.353C156.233 187.127 156.282 186.846 156.5 186.554C156.622 186.391 156.944 186.023 157.277 186.152C157.367 186.185 157.427 186.243 157.47 186.305C157.48 186.294 157.491 186.284 157.503 186.272C157.646 186.133 157.747 186.082 157.844 186.033C157.918 185.995 157.995 185.956 158.125 185.852C158.182 185.807 158.228 185.766 158.266 185.731C158.383 185.627 158.532 185.505 158.737 185.554C158.953 185.613 159.028 185.819 159.077 185.956C159.165 186.199 159.192 186.367 159.21 186.478C159.217 186.519 159.224 186.564 159.23 186.579C159.277 186.699 159.873 186.73 160.097 186.742C160.601 186.77 161.037 186.793 161.142 187.138C161.217 187.384 161.06 187.652 160.662 187.957C160.538 188.052 160.415 188.117 160.307 188.166C160.373 188.229 160.426 188.314 160.429 188.43C160.436 188.705 160.154 188.915 159.59 189.057C159.45 189.093 159.261 189.14 159.015 189.128C158.898 189.123 158.797 189.105 158.71 189.088C158.697 189.138 158.673 189.189 158.631 189.238C158.505 189.381 158.302 189.417 158.027 189.337C157.723 189.252 157.483 189.137 157.271 189.036C157.086 188.948 156.927 188.873 156.793 188.853C156.544 188.818 156.312 188.971 156.034 189.175L155.338 189.696Z" fill="#F2F2F2"/>
<path d="M151.782 210.768L151.588 210.577L151.319 210.548C151.32 210.523 151.319 210.464 151.317 210.372C151.306 209.866 151.274 208.326 151.489 205.96C151.639 204.309 151.89 202.632 152.234 200.977C152.579 199.319 152.937 198.085 153.225 197.093C153.442 196.346 153.661 195.636 153.875 194.945C154.446 193.099 154.985 191.355 155.318 189.366C155.393 188.922 155.548 187.998 155.231 186.907C155.046 186.274 154.731 185.679 154.293 185.137L154.717 184.796C155.2 185.394 155.549 186.053 155.754 186.756C156.106 187.965 155.937 188.973 155.856 189.456C155.516 191.481 154.972 193.241 154.395 195.105C154.183 195.794 153.964 196.5 153.748 197.245C153.463 198.227 153.108 199.45 152.768 201.087C152.427 202.723 152.18 204.379 152.031 206.009C151.819 208.345 151.851 209.862 151.861 210.36C151.867 210.626 151.868 210.682 151.782 210.768Z" fill="#F2F2F2"/>
<path d="M153.129 185.763C153.107 185.759 153.085 185.753 153.064 185.747C152.616 185.621 152.257 185.258 151.997 184.666C151.875 184.387 151.846 184.094 151.788 183.51C151.779 183.42 151.74 182.964 151.789 182.36C151.82 181.965 151.863 181.806 151.971 181.682C152.09 181.543 152.251 181.464 152.422 181.424C152.426 181.371 152.443 181.32 152.477 181.272C152.617 181.071 152.852 181.153 152.979 181.196C153.043 181.219 153.123 181.249 153.213 181.264C153.354 181.288 153.438 181.263 153.566 181.226C153.688 181.191 153.84 181.147 154.05 181.151C154.464 181.156 154.77 181.342 154.871 181.403C155.404 181.722 155.587 182.232 155.8 182.821C155.842 182.939 155.983 183.366 156.015 183.916C156.039 184.313 155.987 184.476 155.927 184.592C155.805 184.831 155.618 184.941 155.154 185.174C154.67 185.418 154.427 185.54 154.227 185.603C153.763 185.748 153.472 185.84 153.129 185.763Z" fill="#F2F2F2"/>
<path d="M28.8333 194.608C28.7215 194.266 27.8744 194.417 27.793 194.111C27.712 193.807 28.5249 193.552 29.1483 192.695C29.2607 192.541 29.9692 191.567 29.6975 191.157C29.1824 190.381 25.5989 192.314 24.7387 191.229C24.5499 190.991 24.4723 190.582 23.9099 189.821C23.6862 189.518 23.5427 189.372 23.3712 189.377C23.1278 189.383 23.0408 189.687 22.6583 190.237C22.0847 191.062 21.8777 190.958 21.4999 191.634C21.2194 192.136 21.1862 192.457 20.9839 192.476C20.6977 192.503 20.5794 191.878 20.2296 191.853C19.8727 191.829 19.5156 192.446 19.3386 192.929C19.0063 193.834 19.2121 194.526 19.2577 195.215C19.3072 195.965 19.1908 197.062 18.3748 198.469L10.6777 210.705C12.3308 208.211 17.023 201.409 18.9136 198.914C19.4593 198.194 20.0458 197.471 20.9485 197.335C21.8176 197.203 22.875 197.633 24.351 197.608C24.5234 197.605 25.0031 197.59 25.1198 197.337C25.2163 197.127 24.9767 196.945 25.0639 196.747C25.1808 196.483 25.7066 196.596 26.4232 196.421C26.9286 196.297 27.2719 196.092 27.5671 195.916C27.6561 195.863 28.982 195.062 28.8333 194.608Z" fill="#F2F2F2"/>
<path d="M8.67369 197.464C8.47357 197.421 8.30306 197.879 8.12945 197.831C7.95645 197.783 8.06555 197.311 7.82383 196.758C7.78025 196.659 7.50554 196.031 7.22562 196.046C6.69504 196.074 6.61242 198.387 5.83037 198.495C5.65875 198.518 5.43519 198.439 4.89861 198.494C4.68515 198.517 4.57184 198.545 4.52449 198.63C4.4573 198.751 4.58158 198.881 4.74188 199.227C4.98228 199.746 4.8716 199.818 5.09514 200.198C5.26109 200.48 5.40925 200.589 5.36018 200.693C5.29076 200.841 4.94926 200.719 4.83642 200.883C4.72128 201.051 4.92195 201.404 5.10816 201.63C5.4576 202.053 5.85731 202.152 6.20967 202.329C6.59259 202.521 7.09861 202.894 7.55574 203.7L11.3538 211C10.6037 209.471 8.61169 205.21 7.92986 203.565C7.73303 203.09 7.54649 202.594 7.74003 202.112C7.92635 201.649 8.44249 201.255 8.85608 200.525C8.90438 200.44 9.0358 200.201 8.94468 200.07C8.86934 199.963 8.71052 200.027 8.63868 199.928C8.54232 199.794 8.74986 199.569 8.87023 199.168C8.95511 198.885 8.95351 198.657 8.95214 198.462C8.95172 198.403 8.94008 197.523 8.67369 197.464Z" fill="#F2F2F2"/>
<path d="M12.4629 199.246L12.5823 198.146L12.6555 198.077C12.9943 197.757 13.2062 197.419 13.2857 197.071C13.2983 197.015 13.3081 196.959 13.3182 196.902C13.3578 196.676 13.407 196.395 13.6249 196.103C13.7468 195.94 14.0694 195.573 14.4021 195.701C14.4919 195.735 14.5525 195.793 14.5946 195.854C14.6051 195.844 14.616 195.833 14.6276 195.821C14.7713 195.682 14.8718 195.631 14.9686 195.582C15.043 195.544 15.1199 195.505 15.2499 195.401C15.3069 195.356 15.3526 195.315 15.3911 195.28C15.5078 195.176 15.6571 195.055 15.8617 195.103C16.0785 195.162 16.1528 195.368 16.2021 195.505C16.2902 195.749 16.3173 195.916 16.3353 196.027C16.3417 196.068 16.3492 196.114 16.3549 196.129C16.4024 196.248 16.998 196.279 17.2222 196.292C17.726 196.319 18.162 196.342 18.2668 196.687C18.342 196.933 18.1852 197.202 17.7874 197.506C17.6634 197.601 17.5395 197.666 17.4316 197.715C17.498 197.778 17.5509 197.863 17.5541 197.979C17.5614 198.254 17.2791 198.464 16.7151 198.607C16.5749 198.642 16.3864 198.689 16.1397 198.678C16.0235 198.672 15.9217 198.654 15.8349 198.637C15.822 198.687 15.7983 198.738 15.7555 198.787C15.63 198.93 15.4272 198.967 15.1521 198.886C14.8482 198.801 14.6082 198.686 14.3964 198.585C14.2114 198.497 14.0519 198.422 13.918 198.402C13.669 198.367 13.4369 198.52 13.1591 198.724L12.4629 199.246Z" fill="#F2F2F2"/>
<path d="M14.4496 192.982L13.3531 193.145L13.2675 193.092C12.8719 192.846 12.4901 192.728 12.1322 192.739C12.0753 192.741 12.0185 192.746 11.9607 192.751C11.7314 192.77 11.4464 192.794 11.1081 192.657C10.9195 192.581 10.4812 192.363 10.5213 192.009C10.5311 191.914 10.5721 191.841 10.6211 191.785C10.608 191.777 10.595 191.769 10.5808 191.761C10.4093 191.658 10.3343 191.574 10.2621 191.493C10.2065 191.43 10.1493 191.366 10.0157 191.267C9.95717 191.223 9.90588 191.19 9.86276 191.161C9.73233 191.075 9.5764 190.962 9.57129 190.752C9.57362 190.528 9.75481 190.404 9.87473 190.322C10.0886 190.175 10.2442 190.106 10.3474 190.061C10.3851 190.044 10.4275 190.025 10.4405 190.016C10.5441 189.94 10.423 189.357 10.3786 189.138C10.2773 188.644 10.1896 188.218 10.4967 188.029C10.7163 187.894 11.0165 187.977 11.4127 188.284C11.5361 188.38 11.6309 188.483 11.7057 188.574C11.7496 188.494 11.8187 188.422 11.9304 188.389C12.1948 188.313 12.4707 188.532 12.7515 189.04C12.8216 189.166 12.9153 189.336 12.9663 189.577C12.9902 189.691 12.9988 189.793 13.0047 189.881C13.0558 189.881 13.1115 189.891 13.1696 189.92C13.3404 190.005 13.4272 190.191 13.4186 190.478C13.4138 190.792 13.3633 191.053 13.3192 191.283C13.2808 191.484 13.2484 191.657 13.2624 191.791C13.2919 192.04 13.4995 192.226 13.7678 192.442L14.4496 192.982Z" fill="#F2F2F2"/>
<path d="M14.5977 189.696L14.717 188.597L14.7903 188.528C15.129 188.208 15.341 187.87 15.4204 187.521C15.4331 187.466 15.4429 187.41 15.4529 187.353C15.4926 187.127 15.5418 186.846 15.7597 186.554C15.8816 186.391 16.2042 186.023 16.5368 186.152C16.6266 186.185 16.6872 186.243 16.7293 186.305C16.7399 186.294 16.7507 186.284 16.7623 186.272C16.906 186.133 17.0066 186.082 17.1034 186.033C17.1778 185.995 17.2546 185.956 17.3847 185.852C17.4417 185.807 17.4874 185.766 17.5259 185.731C17.6426 185.627 17.7919 185.505 17.9964 185.554C18.2132 185.613 18.2876 185.819 18.3369 185.956C18.425 186.199 18.4521 186.367 18.47 186.478C18.4765 186.519 18.484 186.564 18.4897 186.579C18.5371 186.699 19.1328 186.73 19.3569 186.742C19.8608 186.77 20.2967 186.793 20.4016 187.138C20.4768 187.384 20.32 187.652 19.9221 187.957C19.7982 188.052 19.6743 188.117 19.5663 188.166C19.6327 188.229 19.6856 188.314 19.6889 188.43C19.6961 188.705 19.4138 188.915 18.8498 189.057C18.7097 189.093 18.5211 189.14 18.2744 189.128C18.1582 189.123 18.0565 189.105 17.9697 189.088C17.9568 189.138 17.933 189.189 17.8903 189.238C17.7647 189.381 17.562 189.417 17.2868 189.337C16.983 189.252 16.743 189.137 16.5312 189.036C16.3461 188.948 16.1866 188.873 16.0528 188.853C15.8038 188.818 15.5717 188.971 15.2938 189.175L14.5977 189.696Z" fill="#F2F2F2"/>
<path d="M11.0421 210.768L10.8482 210.577L10.5788 210.548C10.5801 210.523 10.5783 210.464 10.5763 210.372C10.566 209.866 10.5338 208.326 10.7487 205.96C10.8987 204.309 11.1494 202.632 11.4939 200.977C11.8389 199.319 12.197 198.085 12.4847 197.093C12.7017 196.346 12.9208 195.636 13.1347 194.945C13.7054 193.099 14.2443 191.355 14.578 189.366C14.6528 188.922 14.8079 187.998 14.4903 186.907C14.3061 186.274 13.9906 185.679 13.5524 185.137L13.9765 184.796C14.4601 185.394 14.8089 186.053 15.0136 186.756C15.3656 187.965 15.1967 188.973 15.1155 189.456C14.7758 191.481 14.2315 193.241 13.6552 195.105C13.4424 195.794 13.224 196.5 13.0079 197.245C12.7229 198.227 12.368 199.45 12.0275 201.087C11.6869 202.723 11.4394 204.379 11.291 206.009C11.0789 208.345 11.1108 209.862 11.1212 210.36C11.1266 210.626 11.1278 210.682 11.0421 210.768Z" fill="#F2F2F2"/>
<path d="M12.389 185.763C12.3672 185.759 12.3452 185.753 12.3233 185.747C11.8759 185.621 11.5171 185.258 11.2564 184.666C11.1345 184.387 11.1057 184.094 11.0482 183.51C11.0392 183.42 10.9994 182.964 11.0483 182.36C11.0802 181.965 11.1227 181.806 11.2304 181.682C11.35 181.543 11.5111 181.464 11.6814 181.424C11.686 181.371 11.7031 181.32 11.7371 181.272C11.8772 181.071 12.1116 181.153 12.2388 181.196C12.3029 181.219 12.3828 181.249 12.4726 181.264C12.6138 181.288 12.6981 181.263 12.8257 181.226C12.9478 181.191 13.0996 181.147 13.3095 181.151C13.7235 181.156 14.0301 181.342 14.1311 181.403C14.6635 181.722 14.8473 182.232 15.0599 182.821C15.1022 182.939 15.2425 183.366 15.2751 183.916C15.2987 184.313 15.2466 184.476 15.1868 184.592C15.0648 184.831 14.8779 184.941 14.414 185.174C13.9294 185.418 13.6863 185.54 13.4869 185.603C13.023 185.748 12.7317 185.84 12.389 185.763Z" fill="#F2F2F2"/>
<path d="M130.733 0H43.5279C37.5796 0 32.7578 4.81098 32.7578 10.746V199.655C32.7578 205.59 37.5796 210.401 43.5279 210.401H130.733C136.682 210.401 141.504 205.59 141.504 199.655V10.746C141.504 4.81097 136.682 0 130.733 0ZM127.086 194.649C127.086 199.051 123.507 202.618 119.095 202.618H56.1125C51.701 202.618 48.1257 199.051 48.1257 194.649V27.0743C48.1257 22.6726 51.701 19.1053 56.1125 19.1053H119.095C123.507 19.1053 127.086 22.6726 127.086 27.0743V194.649Z" fill="#E6E6E6"/>
<path d="M123.302 102.606C124.868 102.606 126.139 101.339 126.139 99.7757C126.139 98.2125 124.868 96.9452 123.302 96.9452C121.735 96.9452 120.465 98.2125 120.465 99.7757C120.465 101.339 121.735 102.606 123.302 102.606Z" fill="#E6E6E6"/>
<path d="M123.369 113.645C124.936 113.645 126.206 112.378 126.206 110.814C126.206 109.251 124.936 107.984 123.369 107.984C121.802 107.984 120.532 109.251 120.532 110.814C120.532 112.378 121.802 113.645 123.369 113.645Z" fill="#E6E6E6"/>
<path d="M76.6716 29.6026H61.6571C59.4103 29.6026 57.5801 31.4256 57.5801 33.6673V131.678C57.5801 133.923 59.4103 135.746 61.6571 135.746H76.6716C77.4226 135.746 78.1263 135.541 78.7322 135.189C79.4706 134.757 80.0575 134.099 80.4046 133.312C80.6255 132.812 80.7486 132.261 80.7486 131.678V33.6673C80.7486 31.4256 78.9215 29.6026 76.6716 29.6026ZM79.8019 131.678C79.8019 132.522 79.4643 133.29 78.912 133.854L78.9089 133.857C78.8521 133.917 78.7953 133.973 78.7322 134.027C78.1799 134.509 77.4605 134.802 76.6716 134.802H61.6571C59.931 134.802 58.5268 133.4 58.5268 131.678V33.6673C58.5268 31.9451 59.931 30.544 61.6571 30.544H76.6716C78.3977 30.544 79.8019 31.9451 79.8019 33.6673L79.8019 131.678Z" fill="#E6E6E6"/>
<path d="M112.607 29.6026H97.5897C95.3429 29.6026 93.5127 31.4256 93.5127 33.6673V131.678C93.5127 133.923 95.343 135.746 97.5897 135.746H112.607C114.854 135.746 116.681 133.923 116.681 131.678V33.6673C116.681 31.4256 114.854 29.6026 112.607 29.6026ZM115.738 131.678C115.738 133.4 114.333 134.802 112.607 134.802H97.5897C95.8636 134.802 94.4594 133.4 94.4594 131.678V33.6673C94.4594 31.9451 95.8636 30.544 97.5897 30.544H112.607C114.333 30.544 115.738 31.9451 115.738 33.6673V131.678Z" fill="#E6E6E6"/>
<path d="M70.3062 149.852L66.0935 149.833V150.371H78.3278C78.4635 150.371 78.5992 150.381 78.7317 150.396V149.892L70.3062 149.852ZM80.2338 149.899C79.7794 149.656 79.2713 149.499 78.7317 149.449C78.5992 149.433 78.4635 149.427 78.3278 149.427H63.3102C62.6917 149.427 62.1079 149.565 61.5841 149.811C60.1988 150.462 59.2363 151.87 59.2363 153.494V185.931C59.2363 188.172 61.0634 189.999 63.3102 189.999H78.3278C78.4635 189.999 78.5992 189.992 78.7317 189.977C80.7892 189.775 82.4017 188.037 82.4017 185.931V153.494C82.4017 151.939 81.5213 150.585 80.2338 149.899ZM81.4582 185.931C81.4582 187.518 80.2685 188.83 78.7317 189.029C78.5992 189.045 78.4635 189.054 78.3278 189.054H63.3102C61.5841 189.054 60.1799 187.653 60.1799 185.931V153.494C60.1799 151.772 61.5841 150.371 63.3102 150.371H78.3278C78.4635 150.371 78.5992 150.381 78.7317 150.396C80.2685 150.595 81.4582 151.908 81.4582 153.494V185.931ZM78.3278 149.427H70.3062V150.371H78.3278C78.4635 150.371 78.5992 150.381 78.7317 150.396V149.449C78.5992 149.433 78.4635 149.427 78.3278 149.427Z" fill="#E6E6E6"/>
<path d="M99.5111 149.99V150.371H105.889V150.022L99.5111 149.99ZM116.457 150.069C115.949 149.744 115.362 149.527 114.734 149.455C114.579 149.436 114.421 149.427 114.26 149.427H99.2428C98.495 149.427 97.7976 149.628 97.1948 149.981C95.9831 150.686 95.1689 151.999 95.1689 153.494V185.931C95.1689 188.172 96.996 189.999 99.2428 189.999H114.26C116.507 189.999 118.337 188.172 118.337 185.931V153.494C118.337 152.059 117.586 150.793 116.457 150.069ZM117.391 185.931C117.391 187.653 115.987 189.054 114.26 189.054H99.2428C97.5167 189.054 96.1156 187.653 96.1156 185.931V153.494C96.1156 151.772 97.5167 150.371 99.2428 150.371H114.26C115.987 150.371 117.391 151.772 117.391 153.494V185.931Z" fill="#E6E6E6"/>
<path d="M104.906 133.098C105.746 135.14 107.482 136.363 108.785 135.83C110.087 135.296 110.462 133.209 109.622 131.166C109.297 130.346 108.781 129.615 108.115 129.034L104.448 120.427L100.437 122.23L104.478 130.524C104.412 131.404 104.559 132.287 104.906 133.098Z" fill="#FFB6B6"/>
<path d="M96.2384 78.8995L98.3409 78.0604C100.816 81.9013 102.177 86.3504 102.274 90.9153L102.546 103.653L108.433 125.47L101.705 127.987L93.2949 100.716L96.2384 78.8995Z" fill="#2F2E41"/>
<path d="M100.576 139.771C100.311 139.771 100.043 139.731 99.7794 139.649L92.6241 137.419C91.7962 137.161 91.1665 136.541 90.8964 135.719C90.6263 134.896 90.7665 134.025 91.2808 133.328L111.26 106.263C111.747 105.603 112.498 105.212 113.319 105.189C114.145 105.164 114.911 105.514 115.435 106.146L119.507 111.057C120.26 111.965 120.316 113.276 119.645 114.245L102.749 138.629C102.243 139.359 101.428 139.771 100.576 139.771Z" fill="#A4755D"/>
<path d="M116.585 115.46C116.501 115.46 116.416 115.426 116.354 115.359L112.048 110.728C111.93 110.6 111.937 110.401 112.065 110.283C112.192 110.165 112.392 110.172 112.511 110.3L116.817 114.931C116.935 115.058 116.928 115.257 116.8 115.376C116.739 115.432 116.662 115.46 116.585 115.46Z" fill="white"/>
<path d="M114.692 118.293C114.607 118.293 114.523 118.26 114.461 118.193L110.155 113.562C110.036 113.434 110.044 113.235 110.171 113.117C110.299 112.998 110.499 113.005 110.617 113.133L114.923 117.765C115.042 117.892 115.034 118.091 114.907 118.209C114.846 118.266 114.769 118.293 114.692 118.293Z" fill="white"/>
<path d="M112.483 121.442C112.398 121.442 112.314 121.408 112.252 121.341L107.946 116.71C107.827 116.583 107.835 116.383 107.962 116.265C108.09 116.147 108.29 116.154 108.408 116.282L112.714 120.913C112.833 121.04 112.825 121.24 112.698 121.358C112.637 121.414 112.56 121.442 112.483 121.442Z" fill="white"/>
<path d="M110.274 124.276C110.189 124.276 110.105 124.242 110.043 124.175L105.737 119.544C105.618 119.416 105.626 119.217 105.753 119.099C105.881 118.981 106.081 118.988 106.199 119.116L110.505 123.747C110.624 123.874 110.616 124.073 110.489 124.192C110.428 124.248 110.351 124.276 110.274 124.276Z" fill="white"/>
<path d="M108.065 127.109C107.98 127.109 107.896 127.076 107.834 127.008L103.528 122.377C103.409 122.25 103.417 122.051 103.544 121.932C103.672 121.814 103.872 121.821 103.99 121.949L108.296 126.58C108.415 126.708 108.407 126.907 108.28 127.025C108.219 127.082 108.142 127.109 108.065 127.109Z" fill="white"/>
<path d="M105.541 129.628C105.456 129.628 105.371 129.594 105.309 129.527L101.003 124.896C100.885 124.769 100.892 124.57 101.02 124.451C101.147 124.333 101.347 124.34 101.466 124.468L105.772 129.099C105.89 129.227 105.883 129.426 105.755 129.544C105.694 129.601 105.617 129.628 105.541 129.628Z" fill="white"/>
<path d="M90.9124 207.818L95.6866 206.381L92.4048 187.323L85.3584 189.444L90.9124 207.818Z" fill="#FFB6B6"/>
<path d="M107.238 202.788C107.462 202.994 107.784 203.776 107.872 204.067C108.142 204.96 107.635 205.902 106.74 206.171L91.9543 210.62C91.3438 210.803 90.6996 210.458 90.5155 209.849L90.3299 209.235C90.3299 209.235 89.0406 207.609 89.8588 204.881C89.8588 204.881 92.2689 206.099 94.2223 202.467L94.5965 200.729L101.883 203.289L105.315 202.7C106.065 202.571 106.676 202.275 107.238 202.788Z" fill="#2F2E41"/>
<path d="M70.5879 197.865L74.3791 201.097L88.679 188.045L83.0836 183.275L70.5879 197.865Z" fill="#FFB6B6"/>
<path d="M83.6491 208.854C83.5972 209.153 83.1112 209.847 82.9136 210.077C82.3063 210.786 81.238 210.87 80.5273 210.264L68.7873 200.253C68.3026 199.84 68.2454 199.113 68.6597 198.629L69.0774 198.141C69.0774 198.141 69.7521 196.18 72.4952 195.393C72.4952 195.393 72.7697 198.075 76.888 197.753L78.5567 197.128L80.3341 204.628L82.6851 207.192C83.1995 207.752 83.779 208.105 83.6491 208.854Z" fill="#2F2E41"/>
<path d="M89.8527 69.6599C94.2592 69.6599 97.8314 66.0957 97.8314 61.6991C97.8314 57.3025 94.2592 53.7383 89.8527 53.7383C85.4462 53.7383 81.874 57.3025 81.874 61.6991C81.874 66.0957 85.4462 69.6599 89.8527 69.6599Z" fill="#FFB6B6"/>
<path d="M83.4136 69.4596L93.926 72.816L95.1875 76.592L94.767 90.8568L80.8906 74.4943L83.4136 69.4596Z" fill="#A4755D"/>
<path d="M102.125 78.0604L94.3449 74.0707V87.9893L82.4121 71.4576L79.8392 74.0747L68.9062 81.4169L76.0547 102.814V113.303L70.1677 130.085L90.772 141.413L104.648 133.441L100.443 104.073L103.387 81.8364L102.125 78.0604Z" fill="#2F2E41"/>
<path d="M99.182 132.183L107.592 163.649L82.3621 195.955L76.0547 189.661L94.3463 161.342L78.1572 130.505L99.182 132.183Z" fill="#2F2E41"/>
<path d="M73.1113 129.246L81.9417 163.649L86.7774 197.166L96.3595 195.955L93.2951 159.454L87.8287 128.407L73.1113 129.246Z" fill="#2F2E41"/>
<path d="M88.0385 67.7814V63.7643L90.5615 60.2294L89.7205 58.6107L89.3 56.5493C89.3 56.5493 94.7665 58.7726 96.869 58.4521C98.9714 58.1317 97.7099 58.026 98.3407 57.6593C98.9714 57.2926 100.233 55.6078 98.3407 53.9328C96.4485 52.2579 97.9152 51.8384 94.0281 52.2579C90.141 52.6775 85.0951 52.6775 84.2541 53.9361C83.4131 55.1948 83.4131 56.0339 83.4131 56.0339C83.4131 56.0339 78.3671 56.4535 82.1516 65.6836L84.2541 70.2987L85.0951 68.6205C85.0951 68.6205 84.2541 64.0054 85.5156 65.6836C86.777 67.3618 88.0385 67.7814 88.0385 67.7814Z" fill="#2F2E41"/>
<path d="M96.5366 88.7499L91.9948 78.4943C91.9211 78.3278 91.921 78.1368 91.9945 77.9703C92.0681 77.8036 92.2095 77.6748 92.3825 77.6167L100.845 74.7765C101.016 74.7191 101.205 74.7355 101.364 74.8215C101.522 74.9075 101.639 75.0567 101.683 75.231L104.471 86.1208C104.556 86.4503 104.368 86.7916 104.045 86.898L97.3353 89.1041C97.2672 89.1265 97.1981 89.1372 97.1301 89.1372C96.8789 89.1372 96.6435 88.9914 96.5366 88.7499Z" fill="#F2F2F2"/>
<path d="M91.6108 77.5183C91.7214 77.4595 91.8702 77.3821 92.0498 77.2915C91.9627 77.2192 91.8981 77.1182 91.8739 76.9976L91.706 76.1598C91.6624 75.9424 91.7627 75.7218 91.9558 75.6121C93.1066 74.9588 97.1125 72.8297 100.231 72.959C100.426 72.9671 100.598 73.0881 100.677 73.2665L101.038 74.087C101.082 74.1885 101.091 74.2957 101.07 74.3957C101.313 74.366 101.557 74.3401 101.801 74.3204C101.954 74.3081 102.099 74.3884 102.173 74.5228L102.357 74.8599C102.474 75.0738 102.368 75.3412 102.136 75.4171L91.9882 78.7381C91.7573 78.8136 91.5139 78.6628 91.4796 78.4228L91.4073 77.9177C91.384 77.755 91.4654 77.5955 91.6108 77.5183Z" fill="#3F3D56"/>
<path d="M97.5871 85.2241C99.2626 83.783 99.8755 81.7523 98.9561 80.6885C98.0367 79.6247 95.9335 79.9308 94.2576 81.3727C93.5802 81.9395 93.0487 82.6599 92.7076 83.4737L85.6855 89.6693L88.6697 92.8951L95.2754 86.4449C96.1326 86.228 96.9253 85.8094 97.5871 85.2241Z" fill="#FFB6B6"/>
<path d="M81.3581 112.522L79.7539 134.756C79.6557 136.117 78.6139 137.219 77.2593 137.405C70.6605 138.311 63.3492 137.394 55.4792 135.048C54.1235 134.643 53.2732 133.303 53.4655 131.904L56.4966 109.865C56.6665 108.63 57.6132 107.64 58.8431 107.421C65.2478 106.276 72.1661 107.381 79.3299 109.562C80.6144 109.953 81.4546 111.185 81.3581 112.522Z" fill="#A4755D"/>
<path d="M71.8252 98.7356C75.2172 98.8795 76.154 107.025 76.2299 110.151L77.0704 110.131C77.0585 109.64 76.7231 98.1076 71.8611 97.897" fill="#3F3D56"/>
<path d="M73.532 81.8364L68.9065 81.4169L64.8501 100.719C64.0772 104.398 66.4936 107.988 70.1982 108.667L73.532 109.277L96.6593 91.9057L91.3043 83.7764L75.6345 93.5839L73.532 81.8364Z" fill="#2F2E41"/>
<path d="M76.066 92.0233C71.2752 91.8186 63.2965 107.599 63.1562 108.038L63.9576 108.293C63.9901 108.192 71.8772 92.6842 76.0301 92.8619" fill="#3F3D56"/>
<path d="M0.5 210.61C0.5 210.818 0.791983 210.985 1.15558 210.985H166.438C166.801 210.985 167.093 210.818 167.093 210.61C167.093 210.403 166.801 210.236 166.438 210.236H1.15558C0.791983 210.236 0.5 210.403 0.5 210.61Z" fill="#CCCCCC"/>
</g>
<defs>
<clipPath id="clip0_566_2327">
<rect width="170" height="211" fill="white" transform="translate(0.5)"/>
</clipPath>
</defs>
</svg>
