<svg width="56" height="56" viewBox="0 0 56 56" fill="none" xmlns="http://www.w3.org/2000/svg">
<path d="M11.6667 49C10.3833 49 9.28511 48.5434 8.372 47.6303C7.45889 46.7172 7.00156 45.6182 7 44.3333V11.6667C7 10.3833 7.45733 9.28511 8.372 8.372C9.28667 7.45889 10.3849 7.00156 11.6667 7H44.3333C45.6167 7 46.7157 7.45733 47.6303 8.372C48.545 9.28667 49.0016 10.3849 49 11.6667V44.3333C49 45.6167 48.5434 46.7157 47.6303 47.6303C46.7172 48.545 45.6182 49.0016 44.3333 49H11.6667ZM11.6667 44.3333H44.3333V11.6667H11.6667V44.3333ZM14 39.6667H42L33.25 28L26.25 37.3333L21 30.3333L14 39.6667Z" fill="#A4755D"/>
</svg>
