<svg width="60" height="64" viewBox="0 0 60 64" fill="none" xmlns="http://www.w3.org/2000/svg">
<path d="M16.3333 58.8333V37.4833C14.3499 36.9389 12.6878 35.85 11.3469 34.2167C10.006 32.5833 9.33481 30.6778 9.33325 28.5V12.1667H13.9999V28.5H16.3333V12.1667H20.9999V28.5H23.3333V12.1667H27.9999V28.5C27.9999 30.6778 27.3295 32.5833 25.9886 34.2167C24.6477 35.85 22.9848 36.9389 20.9999 37.4833V58.8333H16.3333ZM39.6666 58.8333V40.1667H32.6666V23.8333C32.6666 20.6055 33.8045 17.8545 36.0803 15.5803C38.356 13.3061 41.107 12.1682 44.3333 12.1667V58.8333H39.6666Z" fill="#A4755D"/>
<rect x="4" y="0.5" width="56" height="56" rx="28" fill="#A4755D" fill-opacity="0.19"/>
</svg>
