<svg width="64" height="70" viewBox="0 0 64 70" fill="none" xmlns="http://www.w3.org/2000/svg">
<rect x="8" width="56" height="65" rx="16" fill="#A4755D" fill-opacity="0.19"/>
<g clip-path="url(#clip0_730_1135)">
<path d="M46.6668 14H9.33342C8.09574 14 6.90875 14.4917 6.03358 15.3668C5.15841 16.242 4.66675 17.429 4.66675 18.6667V65.3333C4.66675 66.571 5.15841 67.758 6.03358 68.6332C6.90875 69.5083 8.09574 70 9.33342 70H46.6668C47.9044 70 49.0914 69.5083 49.9666 68.6332C50.8418 67.758 51.3334 66.571 51.3334 65.3333V18.6667C51.3334 17.429 50.8418 16.242 49.9666 15.3668C49.0914 14.4917 47.9044 14 46.6668 14ZM46.6668 65.3333H9.33342V18.6667H46.6668V65.3333Z" fill="#A4755D"/>
<path d="M14 23.3333H42V28H14V23.3333ZM14 32.6667H30.3333V37.3333H14V32.6667ZM18.6667 60.6667H37.3333L28 53.6667L18.6667 60.6667ZM44.3333 58.3333V44.3333L32.6667 51.3333L44.3333 58.3333ZM14 44.3333V58.3333L23.3333 51.3333L14 44.3333ZM37.3333 42H18.6667L28 49L37.3333 42Z" fill="#A4755D"/>
</g>
<defs>
<clipPath id="clip0_730_1135">
<rect width="56" height="56" fill="white" transform="translate(0 14)"/>
</clipPath>
</defs>
</svg>
