<svg width="43" height="70" viewBox="0 0 43 70" fill="none" xmlns="http://www.w3.org/2000/svg">
<path opacity="0.5" fill-rule="evenodd" clip-rule="evenodd" d="M-3.73438 -16.8128C2.34592 -20.4763 10.8412 -14.893 16.3879 -10.4753C21.8021 -6.16313 22.3942 1.7781 26.5414 7.30046C30.2708 12.2666 36.8789 14.7848 39.5574 20.3775C42.2996 26.103 44.4682 33.3202 41.7507 39.0573C38.8243 45.2352 31.0259 47.3102 25.1299 50.836C21.138 53.2231 16.0752 53.5081 12.5424 56.5233C8.59549 59.8919 8.45626 66.9439 3.72564 69.1042C-0.754333 71.1501 -6.35954 69.3425 -10.7805 67.1741C-15.0071 65.1011 -16.1319 58.9325 -20.5173 57.2138C-26.8594 54.7282 -35.434 59.7821 -40.6757 55.4579C-45.1745 51.7465 -44.0636 44.1868 -43.2764 38.4382C-42.5377 33.0432 -39.7388 28.0974 -36.3432 23.8178C-33.3821 20.0858 -28.8423 18.1632 -24.971 15.3671C-21.7444 13.0366 -17.4697 11.9193 -15.2843 8.60773C-10.0951 0.744654 -11.8348 -11.9321 -3.73438 -16.8128Z" fill="#F9FDFE"/>
</svg>
