<svg width="57" height="73" viewBox="0 0 57 73" fill="none" xmlns="http://www.w3.org/2000/svg">
<g opacity="0.6" filter="url(#filter0_f_76_421)">
<path fill-rule="evenodd" clip-rule="evenodd" d="M49.0711 62.5289C42.0076 59.0876 45.8677 45.4714 39.148 41.4016C33.9444 38.25 27.3185 48.0137 21.6126 45.8985C16.971 44.1778 15.1949 37.5249 15.3687 32.5865C15.558 27.2074 23.5749 23.5786 22.5844 18.2877C21.4507 12.2319 8.39246 10.6919 10.1651 4.79079C11.9548 -1.16693 24.2103 4.89401 28.0739 0.0136909C31.8165 -4.71396 23.9296 -13.5844 28.1345 -17.9077C31.7049 -21.5785 38.2493 -16.8783 43.195 -15.5331C47.0367 -14.4882 50.1964 -9.93652 54.0707 -10.8533C61.3263 -12.5701 66.0556 -25.5266 72.8945 -22.5605C79.1003 -19.8689 72.4758 -9.17262 73.377 -2.4798C73.8704 1.18499 75.0012 4.79332 76.9972 7.90858C79.8034 12.2881 85.2151 14.6553 87.3844 19.3814C89.766 24.57 92.5488 31.0689 89.9651 36.1602C87.3737 41.2665 79.6591 40.9378 74.8568 44.0671C70.7556 46.7397 67.6029 50.4762 63.623 53.3256C58.9169 56.6951 54.276 65.0647 49.0711 62.5289Z" fill="#F9FDFE"/>
</g>
<defs>
<filter id="filter0_f_76_421" x="0" y="-33" width="101" height="106" filterUnits="userSpaceOnUse" color-interpolation-filters="sRGB">
<feFlood flood-opacity="0" result="BackgroundImageFix"/>
<feBlend mode="normal" in="SourceGraphic" in2="BackgroundImageFix" result="shape"/>
<feGaussianBlur stdDeviation="5" result="effect1_foregroundBlur_76_421"/>
</filter>
</defs>
</svg>
