<svg width="28" height="24" viewBox="0 0 28 24" fill="none" xmlns="http://www.w3.org/2000/svg">
<path d="M27.6181 3.54124C26.6002 3.99149 25.5207 4.2872 24.4154 4.41857C25.5795 3.72142 26.4505 2.62489 26.8661 1.33324C25.7727 1.9839 24.5741 2.4399 23.3261 2.68657C22.4869 1.78867 21.3746 1.19319 20.162 0.992682C18.9495 0.792177 17.7047 0.99789 16.6211 1.57784C15.5375 2.15779 14.6759 3.07948 14.1702 4.19963C13.6645 5.31977 13.5431 6.57561 13.8247 7.7719C11.6073 7.66096 9.43804 7.08487 7.45773 6.08105C5.47743 5.07723 3.7304 3.66813 2.33008 1.94524C1.83447 2.7965 1.57402 3.7642 1.57541 4.74924C1.57541 6.68257 2.56075 8.39057 4.05541 9.39057C3.1701 9.36265 2.30428 9.12356 1.53008 8.69324V8.76124C1.53004 10.0491 1.97546 11.2973 2.79079 12.2941C3.60612 13.291 4.74116 13.9752 6.00341 14.2306C5.1816 14.4535 4.3198 14.4863 3.48341 14.3266C3.83931 15.4351 4.53303 16.4045 5.46741 17.0991C6.40179 17.7937 7.53002 18.1786 8.69408 18.1999C7.53722 19.1085 6.21259 19.7801 4.79596 20.1764C3.37932 20.5727 1.89846 20.6858 0.43808 20.5092C2.98704 22.1484 5.95422 23.0187 8.98475 23.0159C19.2434 23.0159 24.8514 14.5186 24.8514 7.14924C24.8514 6.90924 24.8461 6.66657 24.8354 6.4279C25.9266 5.63905 26.8685 4.66198 27.6167 3.54257" fill="#D1CFCF"/>
</svg>
